<svg xmlns="http://www.w3.org/2000/svg" width="188.76mm" height="222.93mm" viewBox="0 0 535.07 631.92"><defs><style>.a{fill:#fcfdfd;}.b{fill:none;stroke:#fcfdfd;stroke-miterlimit:10;}</style></defs><circle class="a" cx="267.77" cy="92.25" r="11.01" transform="translate(-9.69 149.03) rotate(-30.57)"/><circle class="a" cx="267.77" cy="70.23" r="11.01"/><circle class="a" cx="267.77" cy="48.21" r="11.01"/><circle class="a" cx="267.77" cy="26.19" r="11.01"/><circle class="a" cx="267.77" cy="180.32" r="11.01"/><circle class="a" cx="267.77" cy="158.3" r="11.01" transform="translate(62.49 392.02) rotate(-79.3)"/><circle class="a" cx="267.77" cy="136.29" r="11.01"/><circle class="a" cx="267.77" cy="114.27" r="11.01"/><circle class="a" cx="201.71" cy="422.53" r="11.01"/><circle class="a" cx="201.71" cy="400.52" r="11.01"/><circle class="a" cx="201.71" cy="378.5" r="11.01" transform="translate(-213.12 487.39) rotate(-76.65)"/><circle class="a" cx="201.71" cy="356.48" r="11.01"/><circle class="a" cx="201.71" cy="488.59" r="11.01"/><path class="a" d="M9.19,572.2a4.6,4.6,0,1,1-4.6-4.6A4.59,4.59,0,0,1,9.19,572.2Z"/><circle class="a" cx="13.78" cy="572.2" r="4.59"/><path class="a" d="M27.56,572.2A4.59,4.59,0,1,1,23,567.6,4.58,4.58,0,0,1,27.56,572.2Z"/><circle class="a" cx="32.16" cy="572.2" r="4.59"/><circle class="a" cx="41.34" cy="572.2" r="4.59"/><path class="a" d="M70,572.2a4.6,4.6,0,1,1-4.6-4.6A4.59,4.59,0,0,1,70,572.2Z"/><circle class="a" cx="74.57" cy="572.2" r="4.59"/><circle class="a" cx="83.76" cy="572.2" r="4.59"/><path class="a" d="M97.54,572.2a4.6,4.6,0,1,1-4.6-4.6A4.59,4.59,0,0,1,97.54,572.2Z"/><path class="a" d="M70,627.32a4.6,4.6,0,1,1-4.6-4.59A4.6,4.6,0,0,1,70,627.32Z"/><circle class="a" cx="74.57" cy="627.32" r="4.59"/><circle class="a" cx="83.76" cy="627.32" r="4.59"/><path class="a" d="M79.16,598a4.59,4.59,0,1,1-4.59-4.6A4.58,4.58,0,0,1,79.16,598Z"/><path class="a" d="M88.35,598a4.6,4.6,0,1,1-4.59-4.6A4.59,4.59,0,0,1,88.35,598Z"/><path class="a" d="M97.54,627.32a4.6,4.6,0,1,1-4.6-4.59A4.6,4.6,0,0,1,97.54,627.32Z"/><path class="a" d="M23,586a4.6,4.6,0,1,1,4.59-4.59A4.59,4.59,0,0,1,23,586Z"/><path class="a" d="M23,595.17a4.6,4.6,0,1,1,4.59-4.6A4.59,4.59,0,0,1,23,595.17Z"/><path class="a" d="M23,604.35a4.59,4.59,0,1,1,4.59-4.59A4.58,4.58,0,0,1,23,604.35Z"/><path class="a" d="M23,613.54A4.6,4.6,0,1,1,27.56,609,4.58,4.58,0,0,1,23,613.54Z"/><path class="a" d="M23,622.73a4.6,4.6,0,1,1,4.59-4.59A4.59,4.59,0,0,1,23,622.73Z"/><path class="a" d="M65.38,586a4.6,4.6,0,1,1,4.6-4.59A4.59,4.59,0,0,1,65.38,586Z"/><path class="a" d="M65.38,595.17a4.6,4.6,0,1,1,4.6-4.6A4.59,4.59,0,0,1,65.38,595.17Z"/><path class="a" d="M65.38,604.35a4.59,4.59,0,1,1,4.6-4.59A4.58,4.58,0,0,1,65.38,604.35Z"/><path class="a" d="M65.38,613.54A4.6,4.6,0,1,1,70,609,4.58,4.58,0,0,1,65.38,613.54Z"/><path class="a" d="M65.38,622.73a4.6,4.6,0,1,1,4.6-4.59A4.59,4.59,0,0,1,65.38,622.73Z"/><path class="a" d="M23,631.92a4.6,4.6,0,1,1,4.59-4.6A4.59,4.59,0,0,1,23,631.92Z"/><path class="a" d="M120.14,572.2a4.6,4.6,0,1,1-4.6-4.6A4.59,4.59,0,0,1,120.14,572.2Z"/><path class="a" d="M115.54,586a4.6,4.6,0,1,1,4.6-4.59A4.6,4.6,0,0,1,115.54,586Z"/><path class="a" d="M115.54,595.17a4.6,4.6,0,1,1,4.6-4.6A4.6,4.6,0,0,1,115.54,595.17Z"/><path class="a" d="M115.54,604.35a4.59,4.59,0,1,1,4.6-4.59A4.59,4.59,0,0,1,115.54,604.35Z"/><path class="a" d="M115.54,613.54a4.6,4.6,0,1,1,4.6-4.59A4.59,4.59,0,0,1,115.54,613.54Z"/><path class="a" d="M115.54,622.73a4.6,4.6,0,1,1,4.6-4.59A4.6,4.6,0,0,1,115.54,622.73Z"/><path class="a" d="M115.54,631.92a4.6,4.6,0,1,1,4.6-4.6A4.6,4.6,0,0,1,115.54,631.92Z"/><circle class="a" cx="153.13" cy="572.2" r="4.59"/><circle class="a" cx="153.13" cy="581.39" r="4.59"/><path class="a" d="M153.13,595.17a4.6,4.6,0,1,1,4.59-4.6A4.6,4.6,0,0,1,153.13,595.17Z"/><circle class="a" cx="153.13" cy="599.76" r="4.59"/><path class="a" d="M153.13,613.54a4.6,4.6,0,1,1,4.59-4.59A4.59,4.59,0,0,1,153.13,613.54Z"/><circle class="a" cx="153.13" cy="618.14" r="4.59"/><circle class="a" cx="153.13" cy="627.32" r="4.59"/><path class="a" d="M127.87,585.69a4.59,4.59,0,1,1,1.9-6.21A4.61,4.61,0,0,1,127.87,585.69Z"/><path class="a" d="M132.18,593.8a4.59,4.59,0,1,1,1.9-6.21A4.58,4.58,0,0,1,132.18,593.8Z"/><path class="a" d="M136.49,601.92a4.6,4.6,0,1,1,1.9-6.22A4.59,4.59,0,0,1,136.49,601.92Z"/><path class="a" d="M140.8,610a4.59,4.59,0,1,1,1.9-6.21A4.59,4.59,0,0,1,140.8,610Z"/><path class="a" d="M145.12,618.14a4.59,4.59,0,1,1,1.9-6.21A4.61,4.61,0,0,1,145.12,618.14Z"/><path class="a" d="M200.94,572.2a4.6,4.6,0,1,1-4.59-4.6A4.59,4.59,0,0,1,200.94,572.2Z"/><circle class="a" cx="205.53" cy="572.2" r="4.59"/><circle class="a" cx="214.72" cy="572.2" r="4.59"/><path class="a" d="M228.5,572.2a4.59,4.59,0,1,1-4.59-4.6A4.58,4.58,0,0,1,228.5,572.2Z"/><circle class="a" cx="233.1" cy="572.2" r="4.59"/><circle class="a" cx="257.13" cy="572.2" r="4.59"/><path class="a" d="M270.92,572.2a4.6,4.6,0,1,1-4.6-4.6A4.59,4.59,0,0,1,270.92,572.2Z"/><circle class="a" cx="275.51" cy="572.2" r="4.59"/><circle class="a" cx="284.7" cy="572.2" r="4.59"/><circle class="a" cx="257.13" cy="627.32" r="4.59"/><path class="a" d="M270.92,627.32a4.6,4.6,0,1,1-4.6-4.59A4.6,4.6,0,0,1,270.92,627.32Z"/><circle class="a" cx="275.51" cy="627.32" r="4.59"/><path class="a" d="M270.92,598a4.6,4.6,0,1,1-4.6-4.6A4.59,4.59,0,0,1,270.92,598Z"/><path class="a" d="M280.1,598a4.59,4.59,0,1,1-4.59-4.6A4.58,4.58,0,0,1,280.1,598Z"/><circle class="a" cx="284.7" cy="627.32" r="4.59"/><circle class="a" cx="214.72" cy="581.39" r="4.59"/><path class="a" d="M214.72,595.17a4.6,4.6,0,1,1,4.6-4.6A4.59,4.59,0,0,1,214.72,595.17Z"/><circle class="a" cx="214.72" cy="599.76" r="4.59"/><path class="a" d="M214.72,613.54a4.6,4.6,0,1,1,4.6-4.59A4.58,4.58,0,0,1,214.72,613.54Z"/><circle class="a" cx="214.72" cy="618.14" r="4.59"/><circle class="a" cx="257.13" cy="581.39" r="4.59"/><path class="a" d="M257.13,595.17a4.6,4.6,0,1,1,4.6-4.6A4.6,4.6,0,0,1,257.13,595.17Z"/><circle class="a" cx="257.13" cy="599.76" r="4.59"/><path class="a" d="M257.13,613.54a4.6,4.6,0,1,1,4.6-4.59A4.59,4.59,0,0,1,257.13,613.54Z"/><circle class="a" cx="257.13" cy="618.14" r="4.59"/><circle class="a" cx="214.72" cy="627.32" r="4.59"/><circle class="a" cx="380.16" cy="572.2" r="4.59"/><path class="a" d="M393.94,572.2a4.59,4.59,0,1,1-4.59-4.6A4.58,4.58,0,0,1,393.94,572.2Z"/><circle class="a" cx="398.54" cy="572.2" r="4.59"/><path class="a" d="M412.32,572.2a4.6,4.6,0,1,1-4.59-4.6A4.59,4.59,0,0,1,412.32,572.2Z"/><circle class="a" cx="416.91" cy="572.2" r="4.59"/><circle class="a" cx="440.95" cy="572.2" r="4.59"/><path class="a" d="M454.73,572.2a4.6,4.6,0,1,1-4.59-4.6A4.58,4.58,0,0,1,454.73,572.2Z"/><circle class="a" cx="459.33" cy="572.2" r="4.59"/><circle class="a" cx="468.51" cy="572.2" r="4.59"/><circle class="a" cx="440.95" cy="627.32" r="4.59"/><path class="a" d="M454.73,627.32a4.6,4.6,0,1,1-4.59-4.59A4.59,4.59,0,0,1,454.73,627.32Z"/><circle class="a" cx="459.33" cy="627.32" r="4.59"/><path class="a" d="M454.73,598a4.6,4.6,0,1,1-4.59-4.6A4.58,4.58,0,0,1,454.73,598Z"/><path class="a" d="M463.92,598a4.6,4.6,0,1,1-4.59-4.6A4.59,4.59,0,0,1,463.92,598Z"/><circle class="a" cx="468.51" cy="627.32" r="4.59"/><circle class="a" cx="398.54" cy="581.39" r="4.59"/><path class="a" d="M398.54,595.17a4.6,4.6,0,1,1,4.59-4.6A4.6,4.6,0,0,1,398.54,595.17Z"/><circle class="a" cx="398.54" cy="599.76" r="4.59"/><path class="a" d="M398.54,613.54a4.6,4.6,0,1,1,4.59-4.59A4.59,4.59,0,0,1,398.54,613.54Z"/><circle class="a" cx="398.54" cy="618.14" r="4.59"/><circle class="a" cx="440.95" cy="581.39" r="4.59"/><path class="a" d="M441,595.17a4.6,4.6,0,1,1,4.59-4.6A4.59,4.59,0,0,1,441,595.17Z"/><circle class="a" cx="440.95" cy="599.76" r="4.59"/><path class="a" d="M441,613.54a4.6,4.6,0,1,1,4.59-4.59A4.58,4.58,0,0,1,441,613.54Z"/><circle class="a" cx="440.95" cy="618.14" r="4.59"/><circle class="a" cx="398.54" cy="627.32" r="4.59"/><circle class="a" cx="344.88" cy="572.2" r="4.59"/><circle class="a" cx="344.88" cy="581.39" r="4.59"/><path class="a" d="M344.88,595.17a4.6,4.6,0,1,0-4.59-4.6A4.59,4.59,0,0,0,344.88,595.17Z"/><circle class="a" cx="344.88" cy="599.76" r="4.59"/><path class="a" d="M344.88,613.54a4.6,4.6,0,1,0-4.59-4.59A4.58,4.58,0,0,0,344.88,613.54Z"/><circle class="a" cx="344.88" cy="618.14" r="4.59"/><circle class="a" cx="344.88" cy="627.32" r="4.59"/><circle class="a" cx="307.3" cy="572.2" r="4.59"/><circle class="a" cx="307.3" cy="581.39" r="4.59"/><path class="a" d="M307.3,595.17a4.6,4.6,0,1,0-4.6-4.6A4.6,4.6,0,0,0,307.3,595.17Z"/><circle class="a" cx="307.3" cy="599.76" r="4.59"/><path class="a" d="M307.3,613.54a4.6,4.6,0,1,0-4.6-4.59A4.59,4.59,0,0,0,307.3,613.54Z"/><circle class="a" cx="307.3" cy="618.14" r="4.59"/><circle class="a" cx="307.3" cy="627.32" r="4.59"/><path class="a" d="M332.56,585.69a4.59,4.59,0,1,0-1.9-6.21A4.59,4.59,0,0,0,332.56,585.69Z"/><path class="a" d="M328.24,593.8a4.59,4.59,0,1,0-1.9-6.21A4.59,4.59,0,0,0,328.24,593.8Z"/><path class="a" d="M323.93,601.92a4.6,4.6,0,1,0-1.9-6.22A4.59,4.59,0,0,0,323.93,601.92Z"/><path class="a" d="M319.62,610a4.59,4.59,0,1,0-1.9-6.21A4.59,4.59,0,0,0,319.62,610Z"/><path class="a" d="M315.31,618.14a4.59,4.59,0,1,0-1.9-6.21A4.59,4.59,0,0,0,315.31,618.14Z"/><path class="a" d="M505.55,577.86a4.59,4.59,0,1,0-2.46-6A4.59,4.59,0,0,0,505.55,577.86Z"/><path class="a" d="M500.16,586.34a4.6,4.6,0,1,0-2.46-6A4.59,4.59,0,0,0,500.16,586.34Z"/><path class="a" d="M496.61,594.81a4.59,4.59,0,1,0-2.47-6A4.59,4.59,0,0,0,496.61,594.81Z"/><path class="a" d="M493.05,603.28a4.59,4.59,0,1,0-2.46-6A4.6,4.6,0,0,0,493.05,603.28Z"/><path class="a" d="M489.5,611.76a4.6,4.6,0,1,0-2.46-6A4.6,4.6,0,0,0,489.5,611.76Z"/><path class="a" d="M501.16,611.76a4.6,4.6,0,1,0-2.46-6A4.59,4.59,0,0,0,501.16,611.76Z"/><path class="a" d="M510.35,611.76a4.6,4.6,0,1,0-2.46-6A4.59,4.59,0,0,0,510.35,611.76Z"/><path class="a" d="M486,620.23a4.59,4.59,0,1,0-2.46-6A4.61,4.61,0,0,0,486,620.23Z"/><path class="a" d="M482.4,628.7a4.59,4.59,0,1,0-2.46-6A4.58,4.58,0,0,0,482.4,628.7Z"/><path class="a" d="M514.49,586.34a4.6,4.6,0,1,1,2.46-6A4.59,4.59,0,0,1,514.49,586.34Z"/><path class="a" d="M518,594.81a4.59,4.59,0,1,1,2.46-6A4.59,4.59,0,0,1,518,594.81Z"/><path class="a" d="M521.59,603.28a4.59,4.59,0,1,1,2.47-6A4.59,4.59,0,0,1,521.59,603.28Z"/><path class="a" d="M525.15,611.76a4.6,4.6,0,1,1,2.46-6A4.6,4.6,0,0,1,525.15,611.76Z"/><path class="a" d="M528.7,620.23a4.59,4.59,0,1,1,2.46-6A4.6,4.6,0,0,1,528.7,620.23Z"/><path class="a" d="M532.25,628.7a4.59,4.59,0,1,1,2.46-6A4.58,4.58,0,0,1,532.25,628.7Z"/><circle class="a" cx="201.71" cy="466.57" r="11.01" transform="translate(-270.84 279.29) rotate(-45)"/><circle class="a" cx="201.71" cy="444.55" r="11.01"/><circle class="a" cx="311.81" cy="422.53" r="11.01"/><circle class="a" cx="311.81" cy="400.52" r="11.01"/><circle class="a" cx="311.81" cy="378.5" r="11.01" transform="translate(-111.88 625.41) rotate(-80.75)"/><circle class="a" cx="311.81" cy="356.48" r="11.01"/><circle class="a" cx="311.81" cy="488.59" r="11.01"/><circle class="a" cx="311.81" cy="466.57" r="11.01" transform="translate(-155.68 156.15) rotate(-22.66)"/><circle class="a" cx="311.81" cy="444.55" r="11.01"/><circle class="a" cx="179.69" cy="180.32" r="11.01"/><circle class="a" cx="201.71" cy="180.32" r="11.01" transform="translate(-53.4 90.21) rotate(-22.34)"/><circle class="a" cx="223.73" cy="180.32" r="11.01"/><circle class="a" cx="245.75" cy="180.32" r="11.01"/><circle class="a" cx="91.62" cy="180.32" r="11.01"/><circle class="a" cx="113.64" cy="180.32" r="11.01"/><circle class="a" cx="135.66" cy="180.32" r="11.01" transform="translate(-64.02 285.44) rotate(-80.81)"/><circle class="a" cx="157.68" cy="180.32" r="11.01"/><circle class="a" cx="91.62" cy="268.4" r="11.01"/><circle class="a" cx="91.62" cy="290.42" r="11.01"/><circle class="a" cx="91.62" cy="312.44" r="11.01" transform="translate(-231.49 352.65) rotate(-80.75)"/><circle class="a" cx="91.62" cy="202.34" r="11.01"/><circle class="a" cx="91.62" cy="224.36" r="11.01"/><circle class="a" cx="91.62" cy="246.38" r="11.01" transform="translate(-166.29 297.21) rotate(-80.75)"/><circle class="a" cx="443.92" cy="268.4" r="11.01"/><circle class="a" cx="443.92" cy="290.42" r="11.01"/><circle class="a" cx="443.92" cy="312.44" r="11.01" transform="translate(64.19 700.37) rotate(-80.75)"/><circle class="a" cx="443.92" cy="202.34" r="11.01"/><circle class="a" cx="443.92" cy="224.36" r="11.01"/><circle class="a" cx="443.92" cy="246.38" r="11.01" transform="translate(129.39 644.93) rotate(-80.75)"/><circle class="a" cx="377.87" cy="180.32" r="11.01"/><circle class="a" cx="399.89" cy="180.32" r="11.01" transform="matrix(0.16, -0.99, 0.99, 0.16, 158.95, 546.9)"/><circle class="a" cx="421.91" cy="180.32" r="11.01" transform="translate(-36.88 173.91) rotate(-22.34)"/><circle class="a" cx="443.92" cy="180.32" r="11.01"/><circle class="a" cx="289.79" cy="180.32" r="11.01" transform="translate(65.52 437.61) rotate(-80.81)"/><circle class="a" cx="311.81" cy="180.32" r="11.01"/><circle class="a" cx="333.83" cy="180.32" r="11.01"/><circle class="a" cx="355.85" cy="180.32" r="11.01" transform="translate(-41.83 148.8) rotate(-22.34)"/><circle class="a" cx="267.77" cy="334.46" r="11.01"/><circle class="a" cx="179.69" cy="334.46" r="11.01"/><circle class="a" cx="201.71" cy="334.46" r="11.01" transform="translate(-111.99 101.78) rotate(-22.34)"/><circle class="a" cx="223.73" cy="334.46" r="11.01"/><circle class="a" cx="245.75" cy="334.46" r="11.01"/><circle class="a" cx="91.62" cy="334.46" r="11.01"/><circle class="a" cx="113.64" cy="334.46" r="11.01"/><circle class="a" cx="135.66" cy="334.46" r="11.01" transform="translate(-216.17 414.96) rotate(-80.81)"/><circle class="a" cx="157.68" cy="334.46" r="11.01"/><path class="a" d="M146.55,366.62a11,11,0,1,1,0-15.57A11,11,0,0,1,146.55,366.62Z"/><circle class="a" cx="92.04" cy="405.53" r="11.01" transform="translate(-290.11 241.56) rotate(-53.99)"/><circle class="a" cx="107.62" cy="389.96" r="11.01" transform="translate(-219.56 152.05) rotate(-38.55)"/><path class="a" d="M131,382.18a11,11,0,1,1,0-15.57A11,11,0,0,1,131,382.18Z"/><path class="a" d="M364.33,366.62a11,11,0,1,0,0-15.57A11,11,0,0,0,364.33,366.62Z"/><circle class="a" cx="418.83" cy="405.53" r="11.01" transform="translate(-156.05 308.66) rotate(-34.51)"/><circle class="a" cx="403.26" cy="389.96" r="11.01" transform="translate(-143.77 265.69) rotate(-31.24)"/><circle class="a" cx="434.41" cy="421.09" r="11.01" transform="translate(-159.75 535.13) rotate(-54.97)"/><circle class="a" cx="387.68" cy="374.4" r="11.01"/><circle class="a" cx="377.87" cy="334.46" r="11.01"/><circle class="a" cx="399.89" cy="334.46" r="11.01" transform="translate(6.73 676.8) rotate(-80.96)"/><circle class="a" cx="421.91" cy="334.46" r="11.01" transform="translate(-95.47 185.48) rotate(-22.34)"/><circle class="a" cx="443.92" cy="334.46" r="11.01"/><circle class="a" cx="289.79" cy="334.46" r="11.01" transform="translate(-86.64 567.14) rotate(-80.81)"/><circle class="a" cx="311.81" cy="334.46" r="11.01"/><circle class="a" cx="333.83" cy="334.46" r="11.01"/><circle class="a" cx="355.85" cy="334.46" r="11.01" transform="translate(-100.42 160.37) rotate(-22.34)"/><circle class="a" cx="377.87" cy="114.27" r="11.01"/><circle class="a" cx="399.89" cy="114.27" r="11.01" transform="translate(224.19 491.22) rotate(-80.96)"/><circle class="a" cx="421.91" cy="114.27" r="11.01" transform="translate(-11.77 168.95) rotate(-22.34)"/><circle class="a" cx="443.92" cy="114.27" r="11.01"/><circle class="a" cx="289.79" cy="114.27" r="11.01" transform="matrix(0.16, -0.99, 0.99, 0.16, 130.73, 382.1)"/><circle class="a" cx="311.81" cy="114.27" r="11.01"/><circle class="a" cx="333.83" cy="114.27" r="11.01"/><circle class="a" cx="355.85" cy="114.27" r="11.01" transform="translate(-16.72 143.84) rotate(-22.34)"/><circle class="b" cx="267.77" cy="260.72" r="260.22"/><circle class="b" cx="267.77" cy="260.72" r="252.88"/></svg>